<svg xmlns="http://www.w3.org/2000/svg" width="283.387" height="238.859" viewBox="0 0 283.387 238.859"><defs></defs><g transform="translate(-275.48 -274.627)"><path class="a" d="M209.73,83c-.569-.094-.647-.977-.03-1.049,3.921-.454,7.852-.73,11.785-1,7.611-1.861,15.56-1.376,23.226-2.969,8.194-1.7,16.214-4.869,24.064-7.734,7.817-2.851,15.405-6.088,23.365-8.56,3.285-1.019,6.589-1.986,9.9-2.926.473-.134.947-.265,1.422-.4q-.17-.39-.341-.779a71.357,71.357,0,0,1-18.3,5.087c-.507.165-1.01.339-1.517.5a493.439,493.439,0,0,1-57.613,14.858c-.015,0-.018-.021,0-.023A505.992,505.992,0,0,0,284.6,62.7c-.346.044-.69.094-1.036.133a.377.377,0,0,1-.118-.743c2.687-.531,5.344-1.082,7.976-1.728q5.59-1.985,11.088-4.163-.259-.6-.518-1.189c-6.664,1.672-13.294,3.429-19.831,5.7-9.116,3.161-17.882,7.5-27.112,10.291-9.547,2.888-18.673,2.516-28.508,2.1-11.063-.469-21.782.962-32.685,2.636a.141.141,0,0,1-.044-.279c10.105-2.3,20.37-4.646,30.765-5.022,10.883-.392,20.7-.183,31.2-3.548,17.239-5.522,34.728-11.342,52.575-14.747a1.233,1.233,0,0,1,.128-.447c.049-.1.111-.174.163-.265l-.018-.009c.04-.044.068-.089.106-.135a3.825,3.825,0,0,1,.508-.655,11.19,11.19,0,0,0,1.663-3.54,6.175,6.175,0,0,0,.163-2.319c-2.361-4.388-5.482-8.365-8.162-12.577-2.515-3.951-7.033-9.147-7.206-13.972a.767.767,0,0,1-.533.312,12.922,12.922,0,0,1-2.677.14c-.041.056-.078.095-.1.084a.286.286,0,0,1,.083.48l-.282.239a.542.542,0,0,1-.745-.067c-.139-.13-.275-.261-.414-.392a.739.739,0,0,1-.081-.838,3.172,3.172,0,0,1-1.191-1.646,4.607,4.607,0,0,1,.1-2.031c-1.844-2.512-5.073-5.37-5.93-6.776a12.416,12.416,0,0,1-2-6.854,15.6,15.6,0,0,1-5.068,3.578,106.625,106.625,0,0,1-7.664,11.495,23.845,23.845,0,0,1-2.4,5c-.1.611-.213,1.219-.354,1.823-.037.175-.305.156-.284-.03.043-.369.1-.733.147-1.1a12.267,12.267,0,0,1-2.236,2.3c-.425,1.094-.868,2.18-1.353,3.251-.439.972-1.849,1.709-2.8.863-2.579-2.294-2.487-4.977-1.665-8.2.756-2.971,1.473-5.951,2.193-8.932-2.269,3.793-7.406,6.714-10.859,8.713a38.206,38.206,0,0,1-5.06,2.419c-1.108.59-2.236,1.15-3.388,1.669-4.023,1.806-7.343,2.059-11.533,2.277a69.529,69.529,0,0,0-8.812,2.848,32.385,32.385,0,0,1-11.629,4.435c-.378.05-.754.092-1.131.129-3.261.848-6.945,1.314-10.177.383a30.33,30.33,0,0,0-4.251.54c-2.9,2.006-5.975,3.241-8.315,1.463-.021-.015-.032-.034-.051-.05a11.908,11.908,0,0,1-1.348-.333,1.428,1.428,0,0,1-.66-2.144c5.371-7.129,12.942-12.467,20.119-17.626Q215.35,7.03,227.376-1.518q12.1-8.643,24.208-17.259c4.314-3.059,8.608-6.147,12.964-9.141,2.183-1.5,4.362-3.012,6.6-4.437q.952-.6,1.909-1.19c.8-.724,1.344-1,1.676-.916a43,43,0,0,1,2.9-5.046c4.684-9.076,10.137-17.808,15.553-26.428s10.769-17.63,19.311-23.415c5.6-5.28,10.944-10.61,13.01-18.748a.824.824,0,0,1,.485-.563c-.122-1.447-.274-2.9-.436-4.368-.557-5.052-3.022-9.926-3.26-14.872a.721.721,0,0,1,.558-.769c-.281-.2-.548-.411-.812-.628-1.332-.129-2.659-.283-3.98-.485-3.388-.521-10.4-3.287-10.453-7.426l-.556-.111a.429.429,0,0,1-.3-.665c2.669-4.05,7.678-4.83,12.96-3.8,3.934-2.353,6.979-5.854,10.947-8.166a27.147,27.147,0,0,1,12.272-3.615c8.927-.386,19.833-1.5,28.165,2.327,15.736,7.223,23.306,25.855,28.751,41.112a126.22,126.22,0,0,1,7.5,41.493c.062.143.139.281.2.425a.157.157,0,0,1-.2.2c.021,4.195-.159,8.417-.563,12.669-1.615,17.006-6.653,35.891-19.008,48.346A88.8,88.8,0,0,1,378.5,1.033a82.783,82.783,0,0,1-11.555,8.384,103.978,103.978,0,0,1-25.059,10.6A27.994,27.994,0,0,0,343,23.019c.9.741,1.76,1.489,2.024,1.689a43.55,43.55,0,0,0,6.486,3.983c3.839,1.993,7.844,3.643,11.675,5.656a143.8,143.8,0,0,1,12.362,7.38,1.478,1.478,0,0,1,1.521,1.007c2.5,1.685,4.772,3.341,6.031,6.129a2.621,2.621,0,0,1,1.05.065.347.347,0,0,1,.219.12c.193-.259.517-.335,1-.185q.551-.051,1.1-.063c.606-.03,1.212-.046,1.817-.066,3.581-2.317,8.443-3.556,12.973-4.7a.452.452,0,0,1,.254-.233c4.079-1.524,3.864-6.524,7.354-8.142a3.3,3.3,0,0,1,3.1.035c3.715-3.664,6.508-7.938,9.7-12.234a154.362,154.362,0,0,1,12-14.457c9.108-9.584,19.51-18.131,31.325-24.168a.266.266,0,0,1,.355.332c-1.494,4.537-4.76,7.718-8.673,10.346-5.136,3.444-10.2,6.439-14.6,10.854-.13.131-.261.263-.391.392q-.994,1.015-1.965,2.057a.146.146,0,0,1,.068.247q-2.022,1.916-3.865,3.981-.71.817-1.411,1.641c-.221.264-.452.522-.669.789l-.024.031a60.694,60.694,0,0,0-7.77,12.332c-.148.312-.284.652-.416,1,.243.065.488.127.729.215a.155.155,0,0,1,.008.284,1.969,1.969,0,0,1-.957.1c-.286.829-.551,1.732-.821,2.657a1.811,1.811,0,0,1,.443,1.113.274.274,0,0,1-.365.226,1.515,1.515,0,0,1-.411-.215c-.155.513-.312,1.026-.484,1.534a2.609,2.609,0,0,1,.56.616c.1.161-.083.338-.239.33a2.44,2.44,0,0,1-.612-.123,16.553,16.553,0,0,1-1.006,2.239c.09,0,.179,0,.268-.006.883-.242,1.763-.488,2.648-.721,10.586-2.795,22.377-4.988,32.423.645.2.114.021.431-.186.35-12.249-4.813-24.734-.248-36.611,3.482-5.63,1.769-11.326,3.3-17.008,4.884-1.042.289-2.128.639-3.241,1,2.12-.181,4.4-.09,6,1.375,13.722-4.529,27.305-10.156,41.851-7.622.291.052.331.5.014.537a266.709,266.709,0,0,0-27.86,5.1Q414.347,48.4,408,50.271c-.049.013-.115.029-.167.044.148.323.28.655.409,1a10.135,10.135,0,0,1,.426,1.417,4.812,4.812,0,0,1,.337.59l5.4-1.324c14.717-5.478,30.486-9.742,45.464-5.5.368.1.212.671-.149.635-12.471-1.254-24.692,1.632-36.5,5.483-5.294,1.726-10.514,3.666-15.83,5.322a69.047,69.047,0,0,1-7.66,1.816c3.02,5.086,2.7,11.9.379,17.176a1.216,1.216,0,0,1-2.276-.854q.335-1.189.572-2.353c.5-3.812-.914-7.856-2.652-11.207a13.731,13.731,0,0,0-1.1-1.786c-.362.074-.723.144-1.085.222a113,113,0,0,1-31.946,1.809c-4.689-.328-9.448-.574-14.209-.881l.014.025c.363.583-.526.971-.932.586q-.36-.342-.733-.722c-5.6-.379-11.191-.885-16.675-1.736q.913,1.253,1.833,2.512c2.777,3.82,5.226,7.479,5.414,12.3a.769.769,0,0,1-1.337.609c-.154-.168-.316-.335-.473-.5-4.006.264-7.5-6.907-9.479-9.49-.28-.365-.553-.73-.829-1.094a44.29,44.29,0,0,1-4.114-5.353,3.1,3.1,0,0,1-.319.256,1.357,1.357,0,0,1-1.263.757l-1.944-.117c-.566,3.651-1.422,7.311-2.018,10.84a.361.361,0,0,1-.626.192c-1.608-1.535-1.461-3.6-1.651-5.743-.124-1.379-.225-2.761-.328-4.142a79.1,79.1,0,0,0-8.2,2.335c-4.705,1.633-9.384,3.343-14.1,4.936-8.809,2.974-17.646,5.85-26.551,8.524-12.911,3.876-27.116,7.094-40.98,7.094A78.078,78.078,0,0,1,209.73,83Zm16-2.352q2.823-.208,5.642-.479C229.486,80.315,227.6,80.467,225.727,80.653Zm40.7-8.365c-5.806,1.771-11.583,3.869-17.482,5.384,5.184-.868,10.358-1.826,15.446-2.937a266.906,266.906,0,0,0,28.536-8.178c4.128-1.4,8.258-2.805,12.337-4.338a42.763,42.763,0,0,0,4.251-2.011,14.091,14.091,0,0,1-.661-1.541h0c-.021.512-.046,1.024-.065,1.537-.016.434-.621.478-.8.13l-.548-1.1c-.4.159-.8.323-1.2.48l0,.035a.332.332,0,0,1-.568.189C292.873,64.885,279.552,68.286,266.432,72.288Zm52.575-17.771c.388.5.8,1,1.236,1.482.006.006.014,0,.021.011s.021.034.034.05c1.932,2.159,4.172,4.168,5.651,6.089,1.606,2.083,3.217,4.163,4.789,6.274a39.824,39.824,0,0,0,2.209,3.387A120.123,120.123,0,0,0,325.929,61c-.633-.869-1.256-1.742-1.858-2.627a.166.166,0,0,1-.2-.067,6.818,6.818,0,0,1-.469-.958c-.459-.707-.9-1.425-1.307-2.156-.326.335-.655.667-.969,1.015-.177.2-.612.2-.63-.146a8.637,8.637,0,0,1,.32-2.79A8.487,8.487,0,0,1,319.007,54.518Zm-5.977,6.295a26.19,26.19,0,0,0,.2,5.222c.695,4.38.848,1.619,1.011-1.121.09-1.512.167-3.027.249-4.54A7.3,7.3,0,0,1,313.03,60.812Zm82.88-.332a61.168,61.168,0,0,1,2.784,6.068c.054.129.1.253.155.381a19.12,19.12,0,0,0-1.935-6.642Zm-50.7-2.343c5.937.494,11.867,1.135,17.706,1.641,10.406.9,20.75,2.281,30.857-.13a11.279,11.279,0,0,0-2.143-1.795c-8.195,2.773-17.434,2.371-25.924,1.639-2.883-.248-5.762-.533-8.639-.831-3.987-.03-7.97-.265-11.937-.664ZM297.6,58.3c-1.715.614-3.435,1.209-5.157,1.8,2.237-.572,4.456-1.22,6.665-2,1.221-.432,2.429-.9,3.629-1.386l-.114-.26C300.954,57.077,299.281,57.7,297.6,58.3Zm13.324-.506q-.13.937-.293,1.869c.39-.183.78-.36,1.174-.519-.03-.4-.064-.807-.094-1.21a.867.867,0,0,1-.1-.229c-.015-.062-.036-.12-.051-.182C311.352,57.615,311.138,57.7,310.926,57.794Zm79.823-.455a20.409,20.409,0,0,0-4.368-1.645,52.927,52.927,0,0,1-8.912,1.356c-.953.135-1.907.27-2.863.4A128.263,128.263,0,0,1,360.8,58.633c-1.085.025-2.169.028-3.255.023C368.741,59.735,379.947,59.947,390.749,57.338ZM379.76,52a40.853,40.853,0,0,1,5.849.416,13.064,13.064,0,0,1,7.5,4.23,16.278,16.278,0,0,1,2.083,2.641c.205-.056.409-.121.612-.181a4.156,4.156,0,0,0-.235-1.114,12.274,12.274,0,0,0-5.786-4.458l-.08.014a.154.154,0,0,1-.166-.111,42.942,42.942,0,0,0-7.828-1.745.094.094,0,0,1-.005-.185,13.833,13.833,0,0,1,2.724-.3,18.5,18.5,0,0,1-1.927-.423.7.7,0,0,1-.492-.633c-.462-.006-.716.144-.64.524.054.273-.347.323-.418.066a1.047,1.047,0,0,1,.069-.91c-.6-.238-.482-1.239.23-1.124,1.112.18-.819-1.813-1.592-2.57a32.8,32.8,0,0,0-2.551,2.187,20.175,20.175,0,0,1,2.1,3.719c.207-.022.395-.04.528-.04Zm-66.4,4.721c-.068.635-.133,1.279-.189,1.935a10.746,10.746,0,0,1,1.429-.328q.059-1.131.08-2.2C314.238,56.334,313.8,56.525,313.356,56.724Zm31.265.411c2.869.375,5.746.743,8.631,1.071,1.607.046,3.215.074,4.823.059a137.335,137.335,0,0,0,16.169-1.071,107.111,107.111,0,0,1-15.29-.969c-5.4-.667-10.789-1.364-16.18-2.05C343.418,55.139,344.03,56.133,344.621,57.136Zm.317.54c2.564.239,5.134.422,7.708.508q-3.969-.433-7.934-.894Zm-40.91-.491q.058.5.117.993l.527-.147c-.17-.3-.346-.6-.533-.9Zm93.185-.576c.445.432.869.878,1.262,1.344.057.07.107.146.164.215.229-.085.458-.157.687-.247,2.859-1.129,5.792-2.317,8.779-3.5-.033-.143-.069-.282-.109-.413Q402.6,55.31,397.212,56.608Zm-55.021,1.3c-.081-.09-.164-.178-.245-.266q-6.169-.764-12.256-2.04c-.2-.04-.175-.334.031-.313,3.736.4,7.514.882,11.315,1.381a39.421,39.421,0,0,0-3.268-3.121c-4.76-.594-9.525-1.169-14.3-1.691.062.1.122.2.185.3,1.307,1.784,2.537,3.518,3.678,5.24q.994-.016,1.991-.016C333.589,57.38,337.888,57.593,342.192,57.909Zm-37.486-1.027c.208.318.4.646.589.974l.386-.107.08-1.336C305.412,56.575,305.057,56.724,304.706,56.882Zm1.717.658.164-.044-.138-.275Zm12.706-.021.054-.032c-.382-.678-.742-1.365-1.063-2.072-.316-.441-.639-.878-.965-1.318-.023.963-.1,1.934-.2,2.906q.138-.013.276-.013A4.049,4.049,0,0,1,319.129,57.519Zm16.016-1.147q3.248.578,6.528.972c-.139-.149-.279-.3-.419-.445q-3.39-.386-6.776-.768c-1.87-.207-2.62-.291-2.69-.291C331.669,55.84,333.5,56.081,335.145,56.372Zm-28.458-.4c.228.437.45.874.674,1.311l.667-.185c.013-.607.028-1.214.04-1.822C307.608,55.506,307.153,55.743,306.687,55.967Zm2.378-1.2a11.622,11.622,0,0,0,.279,1.955l.443-.122c.069-.78.139-1.561.22-2.341C309.693,54.432,309.38,54.6,309.065,54.77Zm-5.974,1.518.106.235.173-.073-.034-.252Zm39.128-2.92q6.606.879,13.208,1.8a108.464,108.464,0,0,0,29.087.282c.158-.032.317-.069.475-.1-.138-.033-.272-.067-.41-.1a20.415,20.415,0,0,0-5.031-.357,25.5,25.5,0,0,1-3.665-.125c-1.221-.159-1.6-.157-2.387-1.152l-.012-.022c-8.253.59-16.551-1.233-24.732-2.664a54.947,54.947,0,0,0-9.214-.783A24.8,24.8,0,0,1,342.218,53.368Zm54.626,2.881a10.263,10.263,0,0,1,4.257-4.163c-.944-.067-1.888-.108-2.831-.145-1.948.464-3.916.87-5.912,1.2.565.284,1.12.593,1.654.932a7.106,7.106,0,0,0,3.711-.049.225.225,0,0,1,.179.392,3.581,3.581,0,0,1-2.375.728C395.982,55.5,396.427,55.863,396.844,56.249Zm-85.707-.022.009,0-.006-.02Zm-6.44-.53c-.218.082-.438.159-.656.241.042.058.081.116.122.175.439-.189.884-.365,1.32-.561.314-.142.748-.319,1.23-.512C305.983,55.268,305.276,55.482,304.7,55.7Zm-2.236-.8.507,1.121.327-.133-.009-.067a.29.29,0,0,1,.506-.229c.019.025.034.05.053.074q2.957-1.187,5.88-2.435a1.6,1.6,0,0,1-.436-.029Q305.87,54.048,302.461,54.894Zm98.1-2.007c-5.672,4.7,1.453,2.147,3.047,1.756l4.153-1.017c-1.172-.147-3.126-1.121-4.2-1.283-.579-.087-1.158-.148-1.738-.2A5.866,5.866,0,0,0,400.564,52.887Zm-86.354-.68.137.222a.391.391,0,0,1-.238.632c-.093.005-.164.007-.24.009a8.037,8.037,0,0,0-.246,1.283c-.034.294-.07.6-.105.91a9.682,9.682,0,0,1,1.053.165.368.368,0,0,1,.118.066,18.68,18.68,0,0,0-.3-3.587C314.323,52,314.267,52.1,314.21,52.206Zm6.987,2.962c.2-.187.389-.381.585-.57-.135-.254-.274-.506-.4-.765A8.076,8.076,0,0,0,321.2,55.168Zm88-1.447c.032.078.054.161.083.24q.877-.343,1.764-.686Zm-92.21-2.683c0,.028.009.058.014.087a12.6,12.6,0,0,0,1.487,2.686,3.948,3.948,0,0,1,1.622-3.143c-.028-.086-.05-.176-.076-.263a2.416,2.416,0,0,0-1.366-.551C318.105,49.855,317.552,50.189,316.983,51.038Zm2.165,2.608a7.535,7.535,0,0,0,1.584-1.262c-.153-.37-.286-.751-.419-1.13A3.349,3.349,0,0,0,319.148,53.646Zm72.113-2.185a1.957,1.957,0,0,0,.607,1.264c.037.041.087.068.124.108q2.259-.417,4.5-.973a29.79,29.79,0,0,1-4.2-.472C391.949,51.417,391.606,51.44,391.261,51.461Zm-68.278-.4c4.548.462,9.084,1,13.616,1.577a10.83,10.83,0,0,0-4.5-2.077c-.1-.016-.194-.023-.292-.035-.235.022-.47.041-.7.067a9.365,9.365,0,0,1-3.348.042,19.031,19.031,0,0,1-4.9.223C322.9,50.93,322.941,51,322.983,51.066Zm65.747.482c.46.211.78.369.873.418.05.028.106.058.161.086q.59.2,1.169.432a3.257,3.257,0,0,1-.312-.842.2.2,0,0,1,.038-.148Q389.695,51.545,388.73,51.548Zm-37-3.024c7.526.575,15.053,1.764,22.538,2.837a2.312,2.312,0,0,1,.363-.252l-.192-.205a.3.3,0,0,1,.16-.493c-.028-.026-.056-.053-.079-.079-.953-1.057-1.752-2.245-2.726-3.3a46.579,46.579,0,0,0-6.256-5.637c-1.307-.977-2.669-1.873-4.059-2.725-2.421-1.154-4.919-2.169-7.325-3.342a75.329,75.329,0,0,1-9.516-5.537,55.588,55.588,0,0,1-6.473-3.649,5.877,5.877,0,0,1-2.875-4.185c-.08-.066-.157-.132-.235-.2-1.236.28-2.472.554-3.708.8a.734.734,0,0,1-.706-1.136c.18-.278.365-.536.558-.781a30.79,30.79,0,0,1-7.259-.277c-3.177-.458-7.384-.779-10.813-2.146-.644.035-1.3.093-1.983.182-1.891.245-6.792,1.684-8.459.485a.266.266,0,0,1,.118.236c1.524,1.866,2.784,4.036,4.121,5.942,2.426,3.452,4.82,6.928,7.218,10.4,1.885,2.727,5.73,6.718,5.908,10.525.221.054.444.1.662.164.46.131.292.739-.085.836-.208.055-.418.1-.63.136l0,.033a4.629,4.629,0,0,1,.806.716.8.8,0,0,1,.161.061,9.614,9.614,0,0,1,1.016-.219,7.177,7.177,0,0,0,5.084-.554q1.027-.416,2.084-.743c2.669-.811,4.039-.455,6.573.87a14.635,14.635,0,0,1,1.551.956q.915-.059,1.832-.093,1.429-.05,2.873-.048C345.231,48.1,348.523,48.279,351.734,48.524Zm81.345-6.709a101.86,101.86,0,0,0-15.987,4.343c-3.274,1.115-6.518,2.229-9.775,3.257.058.078.112.159.164.24,2.759-.736,5.536-1.242,7.736-1.827,9.789-2.605,19.722-3.983,29.594-6.092,3.587-.767.744-.718-1.283-.67-.566.014-1.068.027-1.349.023q-.328,0-.656,0A51.184,51.184,0,0,0,433.078,41.816Zm-117.19,6.178c.055-.069.113-.134.173-.2a10.255,10.255,0,0,1-1.75-.134,4.975,4.975,0,0,1,.6.286,1.065,1.065,0,0,1,.421-.083A1.29,1.29,0,0,1,315.888,47.993Zm59.7-1.627q.666.778,1.261,1.59c.037-.041.067-.084.1-.124a3.817,3.817,0,0,0,.279-3.289A24.26,24.26,0,0,0,375.587,46.366Zm-61.855,1.266a.706.706,0,0,1,.238-.05c-.094-.023-.189-.048-.283-.076Zm63.858-.474a10.961,10.961,0,0,1,1.7-1.367,18.337,18.337,0,0,0-1.653-1.325A4.683,4.683,0,0,1,377.59,47.158Zm-68.654-9.831c.835,1.528,1.648,3.074,2.407,4.64a.444.444,0,0,1,.2.1,5.467,5.467,0,0,1,1.372,3.431c.112.273.227.545.333.819.216.067.44.13.673.18a.91.91,0,0,1,.691-1.336,3.054,3.054,0,0,1,1.438.149c.658.085,1.318.175,1.975.278-1.111-2.5-3.842-5.377-4.835-6.8q-1.906-2.742-3.8-5.487C309.168,34.636,309.03,35.968,308.936,37.327Zm65.054,6.021c-.184.263-.35.528-.515.791.625.6,1.218,1.221,1.783,1.858a11.3,11.3,0,0,1,1.8-1.932c-.376-.257-.756-.51-1.135-.759s-.767-.483-1.152-.725A2.4,2.4,0,0,0,373.99,43.348Zm-6.2-3.712a40.7,40.7,0,0,1,5.226,4.072,5.359,5.359,0,0,1,1.17-1.5c-1.927-1.173-3.917-2.254-5.921-3.267A3.147,3.147,0,0,0,367.785,39.637Zm40.787,1.9c-.1.136-.212.277-.325.429-.041.056-.081.106-.122.16q2.7-.846,5.4-1.662l.159-.4A21.718,21.718,0,0,0,408.572,41.536Zm5.994-1.609c-.049.09-.1.18-.151.271.492-.148.982-.3,1.475-.444Q415.226,39.831,414.566,39.927Zm-61.177-7.239c3,1.352,6.076,2.542,9.059,3.943a42.906,42.906,0,0,1,4.7,2.6,2.95,2.95,0,0,1,.424-.624c-4-1.977-8.188-3.493-12.308-5.2-.718-.3-1.508-.621-2.335-.972Zm59.256,6.24c.471-.072.9-.128,1.192-.178.143-.025.286-.046.429-.069.18-.425.358-.853.54-1.269A15.656,15.656,0,0,1,412.645,38.928Zm2.761-.43q.948-.142,1.9-.26c-.427-.242-.852-.485-1.273-.734C415.821,37.833,415.609,38.165,415.406,38.5ZM419.547,38q.894-.08,1.789-.13c.053-.076.1-.155.155-.235a.866.866,0,0,1-.111-.028,4.158,4.158,0,0,1-1.313-1.182Q419.813,37.216,419.547,38Zm-2.9-1.415q.6.315,1.2.645c.045.023.1.047.142.072.242-.8.508-1.589.8-2.368-.18-.2-.36-.4-.54-.6Q417.418,35.457,416.645,36.59Zm3.844-1.457c.19.189.382.378.571.568a7.668,7.668,0,0,1,.722.8.255.255,0,0,1,.2-.056.849.849,0,0,1,.142.047c.2-.415.377-.845.545-1.286-.454-.267-.885-.595-1.3-.86l-.512-.328Q420.67,34.573,420.489,35.132ZM307.368,34.5q.536.956,1.068,1.92a14.142,14.142,0,0,0,.259-2.8.187.187,0,0,0-.12-.039C308.289,33.577,307.785,34.054,307.368,34.5Zm113.761-1.261.738.4c.367.2.764.392,1.145.6.193-.565.374-1.133.55-1.688-.31-.369-.6-.769-.881-1.045-.212-.208-.433-.4-.661-.593C421.694,31.684,421.4,32.458,421.129,33.237ZM306.756,31.473a8.386,8.386,0,0,0-.025,1.891c.1.171.192.341.288.512.167.041.392-.1.688-.465l1.066-1q-.563-.814-1.129-1.628c-.586-.847-1.241-1.72-1.922-2.613-.278.549-.589,1.188-.846,1.789.245.477.482.927.714,1.355a3.6,3.6,0,0,1,.76-.337.38.38,0,0,1,.051,0A.374.374,0,0,1,306.756,31.473Zm112.113,2.053.351.348q.148-.358.3-.714L419.278,33C419.141,33.178,419,33.35,418.869,33.526ZM232.552.441q-11.264,7.491-22.17,15.5-5.793,4.271-11.454,8.716c-3.373,2.662-7.136,5.312-9.958,8.638,3.29-1.179,8.987-5.741,10.679-6.815,3.378-2.142,6.742-4.3,10.066-6.523,6.908-4.617,13.754-9.328,20.61-14.022,13.531-9.262,26.6-19.1,39.865-28.654q.587-1.577,1.2-3.14.456-1.742,1.076-3.435C260.585-17.785,246.245-8.665,232.552.441ZM419.7,32.461l.109.058c.069-.151.137-.305.21-.457C419.914,32.2,419.806,32.328,419.7,32.461Zm3.56-4.1c-.331.589-.62,1.182-.895,1.776.276.192.546.392.805.608.224.185.5.408.766.653.185-.549.373-1.071.577-1.542.084-.194.176-.383.261-.575a4.109,4.109,0,0,1-1.452-1.029C423.3,28.292,423.281,28.327,423.261,28.364ZM247.659-5.821C239.81-.266,232.025,5.387,224.218,11s-15.581,11.249-23.183,17.135c-.759.589-1.756,1.506-2.9,2.524a54.678,54.678,0,0,1,5.882-.535c1.749-.092,3.559-.12,5.352-.212,1.64-.5,3.317-1.12,5.091-1.859,1.4-.586,2.768-1.1,4.121-1.565.365-.177.727-.355,1.091-.538,13.969-7.442,26.2-17.919,39.02-27.236q1.752-1.444,3.5-2.9c.434-.736.872-1.456,1.254-2.156,1.276-2.338,2.454-4.6,3.527-6.939.714-2.277,1.456-4.545,2.248-6.792C262.053-15.309,254.707-10.806,247.659-5.821ZM190.053,30.461c2.822-2.1,5.428-4.57,8.106-6.728q5.6-4.513,11.361-8.828,3.41-2.564,6.846-5.093C207.213,16.234,198.155,22.811,190.053,30.461Zm113.731-2.65.615,1.21c.4-.893.683-1.58.269-1.58A2.134,2.134,0,0,0,303.784,27.812Zm123.182-4.043c-1.046,1.261-2.155,2.558-3.28,3.879l-.038.064a3.425,3.425,0,0,0,.9.743,2.987,2.987,0,0,0,.5.216,60.463,60.463,0,0,1,3.207-6.077c.34-.565.7-1.121,1.056-1.671Q428.139,22.349,426.966,23.769ZM304.458,26.545l.019,0-.016-.022Zm-49.487-24.2a247.866,247.866,0,0,1-23.248,17.037c-3.5,2.219-7.172,4.46-10.98,6.425.746-.221,1.5-.422,2.251-.609a14.156,14.156,0,0,1,4.234-1.931c.205-.049.41-.081.617-.112q8.764-4.88,17.164-10.384l1.692-1.105-.87-.405c-.189-.089-.08-.394.116-.309l1.107.485q1.619-1.057,3.224-2.15l-.042-.04c-.155-.148.1-.415.252-.274.03.026.069.068.1.1.478-.33.958-.657,1.429-1a.185.185,0,0,1,.184-.137c.668-.485,1.33-.978,1.975-1.489.223-.176.432-.361.644-.543a.274.274,0,0,1,.263-.221,37.364,37.364,0,0,1,4.86-4.138,10.493,10.493,0,0,1,1.3-4.037Q258.13-.054,254.971,2.344Zm8.208,3.893c-.267.349-.558.677-.832,1.018-.193.836-.392,1.671-.571,2.507-.8,3.749-2.478,9.458-.861,13.37a144.593,144.593,0,0,0,8.269-17.425A147.9,147.9,0,0,1,290.519-43c.051-.076.165.006.114.082A150.047,150.047,0,0,0,274.009-9.907,147.527,147.527,0,0,0,269.7,4.469c1.966-4.674,3.951-9.33,6.3-13.758A110.93,110.93,0,0,1,282.633-20.3q-.363-.292-.713-.587c-.125-.106.021-.318.149-.212.238.2.481.385.724.568,1.145-1.649,2.336-3.265,3.6-4.83.023-.031.052-.064.077-.095-.082-.131-.169-.263-.246-.391-.143-.232.243-.4.383-.175.047.074.1.141.148.215,3.906-4.687,11.516-11.709,5.715-17.538-.043-.013-.089-.021-.131-.035a1.114,1.114,0,0,1-.63-.6,9.844,9.844,0,0,1-1.75-.406c-1.866,1.108-3.632,1.389-5.149.4q-2.194,3.87-4.388,7.74A191.068,191.068,0,0,0,266.85-8.088l1.519-1.277a.212.212,0,0,1,.272.324q-1.048.882-2.093,1.763c-.051.146-.111.291-.162.437A127.9,127.9,0,0,0,262.7,5.72a.332.332,0,0,1,.174-.049A.361.361,0,0,1,263.179,6.236Zm-18.456,7.628Q237.7,18.576,230.474,23a18.875,18.875,0,0,0,3.242-.18,25.038,25.038,0,0,0,6.03-2.19A91.883,91.883,0,0,0,251.623,14c-.594-.278-1.177-.588-1.762-.86l-2.428-1.134C246.531,12.632,245.63,13.254,244.723,13.864Zm95.209,6.7c.509.455.565.482.746.786a4.448,4.448,0,0,1,1.036.651c-.192-.519-.375-1.043-.535-1.572-.02-.062-.032-.126-.052-.187C340.728,20.35,340.33,20.456,339.932,20.562Zm-.921.232c.046.029.093.054.138.083-.008-.038-.021-.072-.027-.111Zm-73.537-.7a18.546,18.546,0,0,0,1.21-1.722.349.349,0,0,1-.08-.383c.115-.335.248-.663.372-1,.158-1.011.313-2.02.493-3.026C266.818,16.013,266.166,18.059,265.474,20.09Zm70.545-.4c.194,0,.389-.006.582-.01,1.21-.35,2.413-.727,3.614-1.12a1.578,1.578,0,0,1-.094-.445A33.43,33.43,0,0,1,336.019,19.686Zm-38.276-.844h0Zm42.8-.391.088-.028c-.068-.228-.111-.318-.13-.318S340.492,18.254,340.544,18.451ZM298.805,18.3h.131a1.036,1.036,0,0,1,.54-.041l-.014-.048a2.788,2.788,0,0,1-.589-.146A.863.863,0,0,1,298.805,18.3Zm3.027-.274c3.368.5,6.687.021,10.023-.383-.276-.143-.543-.3-.8-.458a5.132,5.132,0,0,1-1.227-.1c-1.3-.264-3.173-1.224-4.27,0a1.243,1.243,0,0,1-2.143-.529,3.371,3.371,0,0,1-.392-.014l-.013,0a3.821,3.821,0,0,1-.623-.113.4.4,0,0,0,.031.074c.2.044.4.09.595.128a.551.551,0,0,1,.293.959,1.586,1.586,0,0,1-1.835.031l-.084-.031C301.536,17.735,301.688,17.874,301.832,18.023Zm39.42-.379c.044.18.086.36.131.54,2.067-.7,4.117-1.491,6.153-2.321.074-.056.154-.1.229-.16A48.03,48.03,0,0,1,341.252,17.645Zm-27.824-2.588c.452,0,.567.487.415.823.07.014.139.034.209.046.94.205,1.888.364,2.839.518,2.745.448,5.513.795,8.276,1.113a32.518,32.518,0,0,0,8.194-.215,22.856,22.856,0,0,1-9.639-3.019c-.022-.012-.015-.035,0-.049a49.324,49.324,0,0,0-8.464-1.531Q302.4,11.337,289.541,9.959c.358.707.7,1.42,1.007,2.152.2.469.454,1.45.706,2.3a6.729,6.729,0,0,1,1.5,1.8c.388.1.838.208,1.267.307-.722-.941-1.436-2.315-1.105-3.423a.486.486,0,0,1,.822-.139,8.311,8.311,0,0,1,.751,1.325,5.332,5.332,0,0,0,.67.861c.212,0,.424.009.636.021-.353-.619.593-1.083,1.03-.628a12.585,12.585,0,0,0,.949.879c.382.07.766.155,1.147.242a9.5,9.5,0,0,1-.767-1.144c-.307-.539.593-1.1.926-.582a7.766,7.766,0,0,0,2.145,2.121c.02-.028.037-.059.058-.085a3.772,3.772,0,0,1-.942-.743c-.45-.506.332-1.125.794-.662a2.929,2.929,0,0,0,2.867.621,3.353,3.353,0,0,1,2.878-1.316C309.022,13.873,311.565,15.056,313.428,15.057Zm32.873.418q-1.7.568-3.423.993a.506.506,0,0,1-.287.444c-.242.125-.477.239-.713.358a48.434,48.434,0,0,0,6.023-1.861C347.372,15.442,346.837,15.464,346.3,15.475ZM334.807,16.87c.723,0,1.444-.035,2.165-.093,1.642-.28,3.3-.57,5.016-.8q1.323-.316,2.639-.725a.584.584,0,0,1,.37-.91,33.274,33.274,0,0,0,3.618-.515c6.293-2.531,12.364-6.2,17.995-9.264.231-.125.455-.252.684-.377q1.357-1.027,2.664-2.073Q368.832,1.178,367.7.255a94.784,94.784,0,0,1-22.255,6.613c-.31.374-.62.751-.93,1.125a4.979,4.979,0,0,1-1.274,1.338c-.169.091-.337-.105-.284-.267a5.141,5.141,0,0,1,1.128-1.516l.456-.536c-.59.092-1.179.2-1.771.282-.464.064-.937.124-1.417.183a2.172,2.172,0,0,1-.773.7.177.177,0,0,1-.237-.221,1.259,1.259,0,0,1,.19-.379q-1.133.131-2.313.24a6.933,6.933,0,0,1-.926,1.418.165.165,0,0,1-.288-.153,6.122,6.122,0,0,1,.48-1.2c-.766.065-1.546.121-2.336.169a11.74,11.74,0,0,1-2.485,3.164c-.161.139-.351-.074-.257-.238.576-1,1.25-1.921,1.88-2.875-16.019.854-35.966-2.012-40.855-18.355a1.862,1.862,0,0,1-.481-.522,20.155,20.155,0,0,0,.566,3.267c.42.554.828,1.117,1.2,1.7a.082.082,0,0,1-.126.106c-.283-.314-.557-.635-.834-.953a23.212,23.212,0,0,0,4.72,8.207.267.267,0,0,1-.162.431,10.333,10.333,0,0,0-1.819.584c.191.149.381.3.572.448a.221.221,0,0,1-.255.362c-.29-.185-.562-.391-.847-.581A7.571,7.571,0,0,0,294.114,4.1l.867.623a.178.178,0,0,1-.206.291c-.314-.2-.624-.418-.937-.626a7.758,7.758,0,0,0-.559.67A.9.9,0,0,0,293.461,5c-.079-.024-.044-.142.032-.136l.175.012a.086.086,0,0,1,.07.051c.291.658-.289.6-.721.487a10.091,10.091,0,0,0-1.106,2.269.224.224,0,0,1-.419-.158,11.312,11.312,0,0,1,1.034-2.279A29.9,29.9,0,0,1,288.5,2.687l-2.17-1.338c.005.014.01.03.016.043,1.081,2.141,4.384,2.538,3.255,5.17-.088.208-.418.086-.329-.123.794-1.892-1.845-2.778-2.677-3.865a4.951,4.951,0,0,1-.769-1.534l-.163-.1a12.666,12.666,0,0,0,.567,2.214,60.353,60.353,0,0,0,3.184,6.553l23.907,2.537a69.408,69.408,0,0,1,9.421,1.29c2.853.707,5.4,2.375,8.207,3.038a24.392,24.392,0,0,0,2.571.268,8.4,8.4,0,0,0,1.215-.122l.02,0C334.836,16.716,334.855,16.814,334.807,16.87Zm-6.341-.823c-.413-.179-.833-.365-1.282-.555a30.413,30.413,0,0,0-3.315-1.175A24.625,24.625,0,0,0,328.466,16.047Zm-45.8-34.877A136.438,136.438,0,0,0,270.9,4.156c-1.074,2.606-1.976,5.279-2.842,7.964q-.347,1.845-.643,3.7a56.546,56.546,0,0,1,3.366-6.836A58.864,58.864,0,0,1,273,3.473c2.821-5.841,6.106-11.43,9.373-17.026.954-1.634,1.962-3.226,3.006-4.791-.716-.442-1.407-.927-2.066-1.431C283.1-19.458,282.876-19.148,282.667-18.83Zm66.047,34.171c-.148.059-.3.113-.45.171-.056.041-.113.081-.169.122.247-.1.5-.2.746-.305ZM454.335-7.82C451.684-5.964,449.1-4,446.613-1.932a105.068,105.068,0,0,0-15.186,15.458c-.4.5-.783,1.01-1.166,1.519,1.89-2.121,3.825-4.2,5.853-6.147A79.286,79.286,0,0,1,450.806-2.276c2.7-1.588,5.5-3.036,8.069-4.829,1.424-.993,6.846-6.148,4.937-6.747a.688.688,0,0,0-.206-.028C461.8-13.881,455.705-8.778,454.335-7.82ZM247.788,11.758q1.112.489,2.226.977c.7.307,1.434.584,2.14.91q.9-.6,1.785-1.217a41.078,41.078,0,0,1-3.2-2.714Q249.259,10.731,247.788,11.758Zm42,1.206a4.157,4.157,0,0,0-.12-.451,13.435,13.435,0,0,0-2.485-3.7c-1.309-1.6-2.876-3-3.864-4.846-.083-.154-.15-.311-.224-.468C284.114,7.093,287.034,10.211,289.786,12.964Zm68.065-2.575c-1.3.67-2.61,1.332-3.938,1.965.908-.325,1.806-.685,2.695-1.068.76-.427,1.509-.871,2.254-1.325ZM251.036,9.509c.91.923,2.3,2.382,3.18,2.51.052.05.094.087.138.126.106-.076.212-.149.319-.223a5.537,5.537,0,0,0-.207-.561q-.52-.842-1.039-1.684a10.342,10.342,0,0,0-.994-1.117C251.965,8.873,251.5,9.192,251.036,9.509Zm3.869,2.242c.423-.3.839-.609,1.258-.914a16.306,16.306,0,0,0-3.145-2.093l.01,0A16.984,16.984,0,0,1,254.905,11.751Zm-.257-4.633c-.595.373-1.182.764-1.768,1.152.764.416,1.524.84,2.263,1.3.224.14.81.635,1.351,1.022.318-.233.639-.464.953-.7l-.192-.434a11.1,11.1,0,0,0-1.864-2.785C255.144,6.82,254.9,6.963,254.649,7.118Zm105.72,2.219q-.678.425-1.365.836c.787-.391,1.562-.8,2.333-1.231ZM256.9,7.824a12.92,12.92,0,0,1,.955,1.752c.273-.208.543-.42.815-.632-.753-.557-1.51-1.109-2.251-1.683A3.482,3.482,0,0,1,256.9,7.824Zm-3.89.924h0ZM364.777,6.7c-.637.339-1.284.686-1.935,1.037-.468.311-.941.619-1.415.925.49-.205.976-.413,1.462-.62q1.693-1.006,3.326-2.1Q365.5,6.318,364.777,6.7ZM256.01,6.317c1.078.85,2.848,2.237,3.186,2.114.937-.338.124-2.325-.518-3.62C257.819,5.326,256.921,5.8,256.01,6.317ZM334.48,7.81a15.183,15.183,0,0,0,.89-1.549,27.079,27.079,0,0,0,1.7-4.71c.054-.205.4-.122.363.086A22.719,22.719,0,0,1,335.3,7.76c.792-.051,1.57-.113,2.339-.182.3-.559.643-1.1.935-1.64q.938-1.735,1.877-3.468c.127-.235.535-.016.412.218L339.027,6.18c-.224.427-.435.884-.658,1.333.828-.079,1.633-.167,2.424-.264.168-.18.348-.349.5-.513l1.139-1.269c.21-.233.612.044.4.284q-.59.682-1.181,1.361l-.03.037c.653-.085,1.3-.172,1.921-.263.43-.064.859-.145,1.288-.214l.6-.7c.241-.285.721.047.479.339l-.178.217A94.758,94.758,0,0,0,367.448.049a82.52,82.52,0,0,0-7.339-5.414c-.025-.017,0-.054.027-.038,2.6,1.618,5.242,3.355,7.734,5.264.557-.245,1.118-.481,1.67-.737.783-.364,1.554-.743,2.326-1.129a24.008,24.008,0,0,0-6.26-4.8c-.078-.041-.031-.173.05-.131a25.786,25.786,0,0,1,6.59,4.744c.727-.366,1.446-.75,2.165-1.135a33.712,33.712,0,0,0-3.349-3.457c-.134-.119.023-.348.163-.23a44.412,44.412,0,0,1,3.667,3.433Q376.978-4.711,379-5.953c2.4-2.386,4.707-4.874,6.88-7.473.359-.428.817-.943,1.329-1.515a98.818,98.818,0,0,0-6.162-18.485.13.13,0,0,1,.236-.108,76.44,76.44,0,0,1,6.24,18.244c.7-.778,1.473-1.648,2.252-2.576a59.988,59.988,0,0,0-5.19-15.572c-.064-.121.128-.207.192-.087a46.719,46.719,0,0,1,5.354,15.232c.105-.129.21-.252.313-.383-.1.138-.208.269-.31.406.059.4.1.808.148,1.216l1.487-1.89-.005-.03c-.015-.058.038-.081.086-.07.225-.286.453-.574.68-.86-.086-.414-.183-.823-.277-1.233-.556.832-1.161,1.661-1.808,2.462q.914-1.237,1.8-2.492a50.159,50.159,0,0,0-4.915-13.417c-.1-.173.181-.3.278-.127a42.564,42.564,0,0,1,5.033,12.993l.037-.05c-.012.018-.024.036-.035.054.087.451.175.9.243,1.36l.2-.256c.714-1.33,1.34-2.682,1.921-4.043-.022-.191-.046-.382-.071-.571-.739,1.161-1.482,2.324-2.262,3.456,1.375-2.2,2.182-4.389,1.452-6.075a.222.222,0,0,1,.021-.221l.27-.353a28.4,28.4,0,0,0-2.327-7.024c-.079-.163.176-.277.257-.116a28.891,28.891,0,0,1,2.488,6.9.2.2,0,0,1,.086.31c.181.475.363.949.544,1.424,0-.222.016-.445.018-.667a44.4,44.4,0,0,0-.652-7.824,46.692,46.692,0,0,0-4.887-13.976c-.05-.093.1-.161.148-.068.013.023.023.047.037.07-.757-1.922-1.381-3.923-2.034-5.872-.049.042-.1.078-.148.122s-.15-.031-.1-.094.133-.125.194-.194c-.15-.445-.3-.89-.46-1.327-.121-.339.387-.576.513-.235.138.37.281.741.425,1.111a4.064,4.064,0,0,1,1.878-.7.212.212,0,0,1,.4-.086l.016.039c.023,0,.047-.007.069-.007.055,0,.056.09,0,.093l-.035.006c.951,2.268,2.057,4.882,2.119,7.358,0,.142-.22.167-.268.043-.94-2.372-1.355-4.936-2.3-7.328a4.312,4.312,0,0,0-1.805.781,61.6,61.6,0,0,1,3.179,9.106c.028.128-.078.193-.182.185a44.906,44.906,0,0,1,3.82,13.542c.158,1.412.488,3.582.577,5.716a59.51,59.51,0,0,0,2.425-8.618A50.5,50.5,0,0,0,396.6-47.5c-.028-.1.149-.154.178-.053a51.682,51.682,0,0,1,2.012,9.925,128.012,128.012,0,0,0,1.444-22.626c-1.165-1.184-2.165-2.568-3.212-3.838l-1.112-1.348c-.283.972-.587,1.937-.92,2.888,1.82,2.281,3.671,4.486,4.218,4.707a.088.088,0,0,1,.015-.118l.118-.115a.115.115,0,0,1,.134-.006c.293.189.383.364.226.679a.178.178,0,0,1-.177.111c-1.581-.143-2.776-2.719-3.684-3.869-.308-.392-.612-.789-.919-1.183a53.211,53.211,0,0,1-2.565,6.049.094.094,0,0,1-.176-.067c.687-2.362,1.345-4.686,1.956-6.995q-1.662-2.133-3.321-4.269c-.065-.084.061-.187.127-.106.338.416,1.708,2.217,3.247,4.17q.4-1.517.769-3.031l-2.366-2.87a.188.188,0,0,1,.289-.24l2.207,2.588c.212-.888.411-1.775.6-2.661-.362-.4-.729-.787-1.111-1.173-.163-.164.109-.381.27-.227.312.3.626.613.94.924q.22-1.033.418-2.066c-.139-.112-.273-.229-.414-.339s.017-.367.176-.249c.1.074.205.152.307.229.337-1.782.627-3.569.854-5.374a.148.148,0,0,1,.019-.163c.078-.634.152-1.266.216-1.9l-.26-.667c-.042-.109.085-.238.189-.157.044.036.088.076.133.111a69.811,69.811,0,0,0,.184-10.365c-.038-.643-.086-1.284-.139-1.926a.178.178,0,0,1-.168-.046,30.171,30.171,0,0,1-5-6.993c-.089.5-.175,1.007-.262,1.528-.029.175-.305.2-.326.009a10.825,10.825,0,0,1,.06-2.57,43.077,43.077,0,0,1-1.863-4.517c-.264.841-.506,1.694-.719,2.565-.022.093-.17.053-.159-.037a20.319,20.319,0,0,1,.654-3.179c-.5-1.484-.938-2.994-1.337-4.523-.435,1.543-.824,3.106-1.176,4.707-.025.114-.205.1-.186-.02a41.225,41.225,0,0,1,1.2-5.324c-2.44-9.612-3.524-19.862-9.142-28.2-.078-.115.069-.247.16-.162a39.776,39.776,0,0,0-5.941-6.752,33.036,33.036,0,0,0-9.643-4.881c-8.375-2.614-18.417-.7-26.5,2.2-.3.106-.585.229-.873.35l-.319.13c-4.606,2.054-8.3,5.963-12.808,7.961,6.674,2.2,13.072,6.773,15.066,10.84a.664.664,0,0,1-.495.925c-.129.006-.256.009-.383.014,0,.009.008.011.01.02.153,2.448,1.228,4.019,2.5,6.015.067.105-.042.257-.158.172-1.8-1.341-2.569-3.988-2.663-6.135,0-.023.013-.038.021-.059-1.048.053-2.1.1-3.149.128.316.068.633.136.972.2.161.032.139.286-.026.257-.856-.152-1.648-.284-2.4-.425-.581.01-1.161,0-1.742,0a3.473,3.473,0,0,0-.357,1.508,8,8,0,0,0,1.105-.337l.194-.073c-.014-.022-.031-.048-.046-.068-.162-.22.167-.491.325-.271.041.059.092.121.139.181a17.2,17.2,0,0,1,1.685-.58c.143-.039.208.162.113.247-.346.311-.762.71-1.22,1.114a2.1,2.1,0,0,1,.229.464c.04.125-.085.263-.21.174-.028-.019-.049-.049-.077-.069a17.233,17.233,0,0,0,1.046,5.605,4.886,4.886,0,0,0,2.173-.076,33.8,33.8,0,0,1-1.448-7.263.153.153,0,0,1,.3-.047c.392,2.389,1.2,4.774,1.577,7.169a4.434,4.434,0,0,0,2.27-2.174.07.07,0,0,1,.131.05,3.934,3.934,0,0,1-2.353,2.477c.027.19.058.38.076.571a.106.106,0,0,1-.2.06c-.077-.166-.144-.339-.215-.51a5.141,5.141,0,0,1-2.175.166c.07.216.143.432.217.653.031.091-.1.194-.158.1a7.8,7.8,0,0,1-.46-.815c-.053-.01-.1-.012-.157-.023-3.025-.718-4.956-3.455-6.809-5.837-.17-.1-.338-.205-.5-.3-.54-.3-1.081-.612-1.616-.935,5.891,5.658,5.112,17.283,3.749,24.395-2.214,11.554-9.492,23.982-4.186,35.575.1.21-.21.337-.322.144a16.555,16.555,0,0,1-2.265-8.857,51.394,51.394,0,0,1,1.8-17.9c-4.049,5.311-10.046,9.68-14.8,13.38-.069.054-.131.113-.2.167-2.389,3.458-4.684,6.98-6.846,10.589-1.572,2.625-11.008,16.556-9.832,21.257,1.535-1.167,2.933-2.521,3.938-3.449A45.4,45.4,0,0,0,300.9-58.83l.021-.026c.134-.182.259-.371.392-.554,2.14-3.065,4.084-6.268,5.917-9.449.1-.167.379-.014.3.157-1.419,2.919-8.339,16.188-14.9,22.269,3.86-.757,7.054-3.878,10.013-6.219a86.014,86.014,0,0,0,8.012-6.983c.135-.137.34.074.238.221-3.285,4.779-8.232,12.54-14.382,14.851a6.431,6.431,0,0,0,1.105-.022.425.425,0,0,1,.242.8,6.434,6.434,0,0,1-1.466.54c.01.074.021.152.031.235l.122.372c.08.187.164.37.243.559a.881.881,0,0,1-.016.728,1.086,1.086,0,0,0,.455.6c.692.338,1.057-.2,1.708-.646,1.2-.817,2.357-1.675,3.539-2.512,2.528-1.79,5.134-3.384,7.579-5.3.205-.159.515.1.344.318q-.624.776-1.257,1.519c.256-.179.512-.36.775-.527a.236.236,0,0,1,.37.262c-2.441,7.256-8.761,13.593-13.417,19.544-.569.728-1.152,1.447-1.724,2.173-.737,2.562-1.27,5.176-1.736,7.626-.066.355-.122.7-.176,1.049.119.086.243.172.36.259.082.062.01.215-.087.166s-.21-.117-.316-.173a26.476,26.476,0,0,0-.3,5.469l.322.441c-.071-.273-.155-.534-.219-.814-.016-.073.1-.091.117-.017.091.4.209.778.317,1.162a.618.618,0,0,0,.453.168c-.058-.058.032-.148.094-.1.406.3.006.641-.388.517C298.588,5.954,318.471,8.729,334.48,7.81Zm-74.2-.122c.266-.214.526-.432.789-.648a.557.557,0,0,1-.732-.16c-.067-.105-.14-.2-.208-.3C260.2,6.94,260.241,7.312,260.28,7.688Zm1.18-1.152a.538.538,0,0,1-.106.271l.129-.1c.167-.681.339-1.362.509-2.043a.689.689,0,0,1-.411-.124C261.541,5.2,261.509,5.869,261.46,6.536ZM286.152.917q1.419.855,2.834,1.711,1.1.661,2.193,1.325l1.254.757a1.108,1.108,0,0,0,.289.257,7.874,7.874,0,0,1,.679-.87c-2.615-1.748-5.179-3.581-7.745-5.4A7.532,7.532,0,0,0,286.152.917ZM259.675,4.174c.159.192.316.388.476.578-.007-.3-.014-.606-.023-.908C259.978,3.955,259.829,4.068,259.675,4.174Zm25.943-5.893q2.493,1.7,4.99,3.4a24.87,24.87,0,0,1,3.133,2.06c.078-.076.139-.159.222-.234a4.163,4.163,0,0,1,.729-.494C293.133,1.755,291.759.266,290.2-.995a45.416,45.416,0,0,0-4.435-3.128A13.47,13.47,0,0,0,285.619-1.719Zm-2.447-9.116a84.142,84.142,0,0,0-9.027,14.416c3.129-4.684,6.6-9.2,9.736-13.758.518-1.277,1.115-2.542,1.761-3.775C284.82-12.911,283.987-11.881,283.172-10.835Zm2.661,6.3c3.254,1.944,6.848,4.359,9.061,7.43.225-.124.458-.247.688-.373-.56-.377-1.126-.743-1.67-1.143-.1-.075-.013-.2.09-.178-.619-.508-1.223-1.046-1.833-1.531q-3.1-2.469-6.2-4.937C285.915-5.018,285.872-4.775,285.833-4.532Zm83.732,7.422c.26-.154.517-.307.772-.46l-.1-.086C370.01,2.525,369.793,2.714,369.565,2.891ZM286.048-5.653q5.015,3.943,10.031,7.884a1.805,1.805,0,0,0,.9-1.012,2.841,2.841,0,0,0-.626-1.568.056.056,0,0,1-.09.014c-3.247-2.872-6.018-6.432-8.864-9.738-.311.83-.6,1.672-.854,2.519a57.547,57.547,0,0,1,5.418,4.363c.838.769,1.662,1.555,2.444,2.38a12.773,12.773,0,0,1,1,1.1c.672.9.449.762.18-.006a.094.094,0,0,1,.171-.078c.2.428.418.849.646,1.264.109.206-.193.374-.337.211a64.263,64.263,0,0,0-9.617-8.916C286.3-6.7,286.164-6.177,286.048-5.653Zm84.531,7.718.145.131q1.6-.98,3.087-2.012c-.13-.158-.264-.308-.4-.463C372.485.52,371.536,1.3,370.579,2.065Zm-2.445-2c.741.573,1.471,1.159,2.179,1.767l.053-.041c.951-.765,1.871-1.568,2.8-2.364q-.537-.62-1.093-1.21Q370.121-.812,368.133.065ZM285.6.584l.112.067A9.561,9.561,0,0,1,285.459-.9,14.82,14.82,0,0,0,285.6.584ZM373.691-.524c.133.172.275.339.4.515q.973-.684,1.909-1.4l-.549-.666Q374.581-1.29,373.691-.524Zm-.319-1.9c-.305.158-.618.3-.925.454q.529.554,1.011,1.145c.59-.51,1.177-1.022,1.757-1.546-.2-.241-.406-.483-.609-.724C374.191-2.873,373.787-2.638,373.371-2.423Zm-87.92,1.337c0-.122,0-.247-.005-.371l-.012-.007C285.436-1.337,285.444-1.211,285.451-1.085Zm2.087-9.349A119.009,119.009,0,0,1,295.7-1.327a28.327,28.327,0,0,1-1.813-2.652A16.431,16.431,0,0,1,292.6-7.987c-1.36-1.589-2.711-3.183-4.139-4.719C288.151-11.972,287.837-11.214,287.537-10.435Zm91.922,4.553q-1.752,1.752-3.583,3.428.29.347.563.7a49.092,49.092,0,0,0,7.033-6.745C382.163-7.582,380.817-6.72,379.459-5.882ZM285.427-1.849l.01.007c0-.054,0-.109,0-.165C285.432-1.955,285.427-1.9,285.427-1.849Zm89.66-1.508q.274.3.538.6c.838-.764,1.673-1.531,2.487-2.321Q376.617-4.186,375.087-3.356Zm-89.6.24c.006-.073.012-.147.017-.222C285.5-3.263,285.5-3.189,285.492-3.116Zm.1-.926c.009-.058.023-.117.031-.175l-.006,0C285.605-4.16,285.6-4.1,285.589-4.042Zm.191-1.307c-.043.24-.074.479-.111.72l.021.012c.044-.254.081-.507.135-.759l-.017-.014C285.8-5.377,285.792-5.362,285.78-5.349Zm.093-.443.044.035c.122-.527.26-1.051.411-1.575-.031-.022-.059-.047-.09-.069C286.1-6.863,285.979-6.327,285.872-5.792Zm94.451-.986c.247-.156.5-.3.741-.462.762-.494,1.767-1.094,2.858-1.779q.478-.568.949-1.164,1.339-1.689,2.667-3.384-.122-.522-.248-1.043Q383.99-10.531,380.323-6.778Zm-94-.937.1.07c.264-.878.552-1.737.852-2.577l-.138-.158C286.83-9.492,286.563-8.6,286.323-7.715Zm2.28-5.312c1.323,1.336,2.639,2.715,3.849,4.17-.062-.432-.119-.866-.155-1.307-.046-.557-.07-1.136-.083-1.725-.257-.359-.511-.719-.769-1.079q-.88-1.234-1.76-2.467C289.342-14.689,288.976-13.883,288.6-13.027Zm-1.338,2.3.137.149c.225-.618.449-1.228.662-1.812.065-.174.142-.345.207-.519l-.121-.13C287.839-12.277,287.541-11.506,287.265-10.732Zm3.176-6.359c-.186.414-.4.876-.618,1.355q.934,1.281,1.869,2.563l.523.72a38.853,38.853,0,0,1,.31-4.9c-.519-.29-1.02-.6-1.507-.937-.067.141-.139.282-.2.425a6.227,6.227,0,0,0,.866,1.392c.011.012-.007.027-.018.014a6.278,6.278,0,0,1-.892-1.315C290.665-17.546,290.545-17.322,290.441-17.09Zm-2.164,3.734.122.122c.329-.861.661-1.723,1.022-2.572l-.019-.026a.138.138,0,0,1-.021-.092C289-15.079,288.632-14.222,288.276-13.356Zm99.306-1.606c.068.368.121.739.181,1.109l2.245-2.849c-.074-.371-.145-.745-.221-1.114C389.065-16.854,388.334-15.9,387.582-14.962Zm-98.154-1.067a.136.136,0,0,1,.106-.034c.318-.737.657-1.465,1-2.193l-.037-.083Q289.961-17.2,289.428-16.028Zm1.729-2.555c.484.265.956.563,1.415.877a46.628,46.628,0,0,1,1.228-6.1Q292.415-21.228,291.157-18.583Zm-.58.062c.009.031.022.062.031.093.016-.035.031-.071.047-.1a.584.584,0,0,0-.055-.037Zm-7.089-1.516c.7.48,1.409.916,2.137,1.327q.678-1,1.372-2c-.68-.487-1.346-.994-2.016-1.471Q284.22-21.118,283.488-20.038Zm7.8,0c-.192.4-.382.81-.578,1.225l.056.028c.305-.646.621-1.285.94-1.923Q291.5-20.372,291.291-20.035Zm-6.07-2.47c.679.462,1.385.909,2.075,1.378.4-.568.805-1.135,1.216-1.7a14.1,14.1,0,0,1-1.583-1.937Q286.054-23.65,285.222-22.505Zm2-2.621a14.757,14.757,0,0,0,1.283,1.579c.1.106.211.2.318.3q.88-1.2,1.777-2.381a8.058,8.058,0,0,1-1.62-1.61Q288.077-26.2,287.222-25.126Zm108.784-.32c0,.076,0,.153-.006.229q1.312-2.639,2.413-5.34.055-1.3.058-2.595A60.1,60.1,0,0,1,396.006-25.447Zm-.745-.264c.009.139.019.282.026.421.045-.109.1-.218.14-.327.006-.127.013-.253.019-.38C395.386-25.9,395.321-25.807,395.261-25.71Zm-99.2-9.975c-1.333,2.791-3.748,4.8-5.811,7.014-.355.379-.686.776-1.029,1.164a6.821,6.821,0,0,0,1.511,1.486c.038.026.079.047.118.072q1.625-2.14,3.288-4.257c-.434-.229-.884-.525-1.184-.672-.132-.067-.056-.283.083-.22.4.177.866.471,1.309.627q.392-.5.782-1c2.332-2.974,4.657-6.341,7.233-9.426a33.793,33.793,0,0,1-3.094,2.064,5.03,5.03,0,0,1-2.495.884A7.7,7.7,0,0,1,296.06-35.685Zm-23.44,6.238c-.346.963-.671,1.939-.964,2.928.449-1.119.907-2.235,1.384-3.341C272.9-29.722,272.762-29.584,272.621-29.447Zm126.335-5.811c.05,1.078.07,2.156.039,3.235a89.076,89.076,0,0,0,5.661-31.253c-1.091-1.385-2.081-2.867-3.271-4.18-.164-.18-.336-.353-.5-.531q.024,1.8.04,3.6a25.184,25.184,0,0,1,2.5,4.241c.065.143-.14.277-.237.149-.771-1.033-1.517-2.066-2.258-3.1q.011,1.386.021,2.77v.25c.112.173.239.337.341.515.059.1-.087.217-.175.145-.059-.05-.109-.108-.167-.158a144.339,144.339,0,0,1-.676,15.881.189.189,0,0,1,.155.186c0,1.66.094,3.354-.069,5a.118.118,0,0,1-.233.005,28.881,28.881,0,0,1-.088-3.112Q399.624-38.393,398.956-35.258Zm-124.2.8c.022.007.053,0,.074.012a2.523,2.523,0,0,1,.491-.428q.836-1.75,1.709-3.484C276.221-37.094,275.457-35.8,274.759-34.457Zm28.792-42.368c-2.659,4.268-5.026,8.745-7.438,12.961q-4.9,8.568-9.765,17.157a8.856,8.856,0,0,0,4.368-1.847,2.721,2.721,0,0,1-.189-2.165c.7-3.785,3.71-7.993,5.524-11.4a180.319,180.319,0,0,1,10.892-17.833A45.918,45.918,0,0,0,303.551-76.826Zm92.514,10.857q.666.783,1.334,1.563c.926,1.085,1.946,2.155,2.83,3.3q-.007-1.419-.021-2.839l0-.15c-1.111-1.531-2.24-3.037-3.468-4.487C396.534-67.7,396.307-66.832,396.065-65.969Zm4.8-2.908a26.213,26.213,0,0,1,3.8,4.367q0-1.076-.03-2.149c-1.287-2.068-2.528-4.148-3.84-6.188Q400.843-70.861,400.869-68.877Zm-4.005-.284a46.973,46.973,0,0,1,3.33,3.813q-.019-1.7-.045-3.412-1.355-1.384-2.826-2.643C397.183-70.651,397.031-69.9,396.864-69.161Zm3.9-4.77a49.461,49.461,0,0,1,3.832,5.94q-.082-2.341-.263-4.682c-.5-.743-1.007-1.474-1.566-2.179-.671-.844-1.382-1.649-2.116-2.437Q400.717-75.611,400.765-73.931Zm-3.365,2.1c.912.71,1.838,1.471,2.74,2.28q-.038-2.222-.1-4.446c-.623-.937-1.265-1.862-1.942-2.769Q397.84-74.273,397.4-71.827Zm3.225-6.162a36.173,36.173,0,0,1,3.622,4.128c-.082-.957-.178-1.913-.283-2.868a35.9,35.9,0,0,1-3.527-5.036Q400.545-79.879,400.624-77.99Zm-2.472.7q.934,1.156,1.862,2.359-.049-1.582-.115-3.163a15.87,15.87,0,0,0-1.205-1.194c-.134-.111-.251-.208-.36-.3Q398.261-78.441,398.152-77.294Zm2.222-5.534a35.742,35.742,0,0,0,3.092,4.688c.1.131.238.287.383.453-.027-.231-.058-.464-.087-.695a63.053,63.053,0,0,1-3.578-7.131Q400.29-84.172,400.374-82.828Zm-2.017,2.773q.77.653,1.518,1.353-.1-2.259-.249-4.516c-.41-.776-.789-1.572-1.154-2.378C398.5-83.744,398.462-81.894,398.357-80.055Zm1.729-6.583c1.055,2.192,2.327,4.6,3.483,6.71q-.483-3.533-1.163-7.048a41.961,41.961,0,0,0-2.893-5.22C399.742-90.349,399.928-88.5,400.086-86.638Zm-75.9-9.409A69.9,69.9,0,0,0,321.8-81.484c.984-4.892,2.957-9.809,3.844-14.65.208-1.134.339-2.258.436-3.378A22.91,22.91,0,0,1,324.185-96.046Zm74.259,9.352q.52,1.191,1.1,2.343-.123-1.725-.278-3.447c-.375-.986-.723-1.985-1.05-2.99Q398.384-88.742,398.444-86.694ZM394.3-114.458c.5,1.307.969,2.625,1.391,3.971a103.471,103.471,0,0,1,3.816,18.269,13.6,13.6,0,0,1,1.594,2.2c.387.65.732,1.327,1.092,2a156.38,156.38,0,0,0-7.878-26.46Zm3.806,21.2a.3.3,0,0,0-.12.073q.115,1.046.2,2.094c.239.721.584,1.581,1,2.531q-.216-2.248-.51-4.484c-.035-.031-.067-.067-.1-.1.033.019.068.054.1.078a103.023,103.023,0,0,0-3.248-15.882c-.167.247-.311.494-.459.742a87.368,87.368,0,0,1,2.965,14.614c.217.146.445.286.64.447a.786.786,0,0,0-.383-.127A.4.4,0,0,0,398.11-93.255Zm-3.441-3.9c1.193,1.645,2.551,3.29,2.458,2.034a.1.1,0,0,1,.141-.094A79.892,79.892,0,0,0,394.8-107.9a21.95,21.95,0,0,0-2.4,7.209c.184.365.366.732.563,1.09-.011-.02-.016-.03-.014-.03C392.968-99.632,393.771-98.393,394.669-97.155Zm-4.568-9.16c.1.316.208.633.319.946q.653,1.816,1.452,3.574a18.283,18.283,0,0,1,2.784-6.584q-.655-2.281-1.44-4.522A28.642,28.642,0,0,0,390.1-106.315Zm-1.526-5.36c.384,1.588.809,3.163,1.308,4.718a24.46,24.46,0,0,1,3.185-6.371q-.927-2.608-2.022-5.155A56.5,56.5,0,0,0,388.575-111.676Zm4.791-1.462q.794,2.206,1.476,4.483c.121-.179.238-.363.362-.535a.145.145,0,0,1,.14-.059c-.266-.889-.543-1.778-.84-2.66-.212-.635-.45-1.256-.681-1.879C393.668-113.573,393.512-113.357,393.366-113.137Zm-6.3-5.468c.436,2.1.868,4.2,1.36,6.288a52.747,52.747,0,0,1,2.5-6.439q-1.077-2.481-2.3-4.9c-.028-.055.058-.092.086-.041.815,1.532,1.584,3.117,2.311,4.739.11-.235.219-.471.332-.706a123.54,123.54,0,0,0-8.43-14.706c-1.132-1.738-2.275-3.488-3.48-5.182C383.788-133.242,385.517-126.021,387.061-118.606Zm4.075-.086q1.115,2.508,2.082,5.144c.149-.212.309-.418.464-.627-.672-1.786-1.418-3.533-2.221-5.248C391.348-119.182,391.246-118.937,391.136-118.692Zm.708-1.521q1.261,2.662,2.329,5.419l.016-.008c-.721-1.823-1.48-3.677-2.285-5.533Zm-6.884-12.268a111.492,111.492,0,0,1,6.776,12.042l.066-.13c-3.321-7.611-7.454-15.282-13.117-21.262C380.978-138.841,382.973-135.583,384.961-132.481Zm-55.173,9.558a8.313,8.313,0,0,0,3.345,1.805,12.9,12.9,0,0,1-.835-5.747c-.012-.013-.022-.028-.033-.041-.219.185-.445.365-.676.535a.139.139,0,0,1-.009.116,11.123,11.123,0,0,1-.692,1.054.272.272,0,0,1-.426.017,4.119,4.119,0,0,1-.224-.4,2.662,2.662,0,0,1-1.437.216,6.158,6.158,0,0,1-2.057-.928A26.648,26.648,0,0,0,329.788-122.923Zm.926-2.888.009.023c.021-.021.041-.04.06-.06C330.76-125.834,330.737-125.823,330.714-125.811Zm-1.085-1.711c.005.065.021.127.031.19.053,0,.109-.009.162-.012a3.777,3.777,0,0,1,.355-1.578h-.494A5.1,5.1,0,0,0,329.629-127.522Zm-2.151-.427c.152.065.3.129.454.191a6.259,6.259,0,0,0,1.177.367,5.5,5.5,0,0,1,.068-1.531c-.587-.008-1.171-.031-1.757-.05A5.98,5.98,0,0,0,327.478-127.949Zm-.487-.205a6.626,6.626,0,0,1,.046-.832c-.725-.026-1.448-.049-2.173-.093C325.577-128.782,326.281-128.462,326.991-128.154Zm2.6-1.074c.459.007.922.009,1.385,0a12.922,12.922,0,0,1-4.46-1.9,30.209,30.209,0,0,0-8.918-3.9,54.411,54.411,0,0,1,8.892,4.208c.275.162-.013.555-.285.4a79.119,79.119,0,0,0-11.4-5.322c-1.244-.286-2.495-.546-3.747-.792.137.112.275.225.436.351,2.292,1.787,4.666,2.533,7.159,3.829,2.579,1.339,4.3,2.721,7.354,2.947.347.025.711.05,1.079.074l.006-.039a.165.165,0,0,1,.328.034c0,.007,0,.014,0,.023.614.036,1.245.062,1.888.076a.244.244,0,0,1,.128-.035A.289.289,0,0,1,329.593-129.227Zm-20.971-8.826a.87.87,0,0,0,.406.321,2.135,2.135,0,0,1,.886.316c1.562.434,4.051.728,4.778.9a57.781,57.781,0,0,1,8.7,2.338,11.94,11.94,0,0,1,2.857,1.87,15.671,15.671,0,0,0,6.172,3.015,17.424,17.424,0,0,0,3.357-.537c-4.086-1.923-7.809-4.987-11.938-6.9a49.131,49.131,0,0,0-6.45-2.912,17.641,17.641,0,0,0-3.433-.252C311.191-139.89,307.933-139.5,308.622-138.054ZM369.2,39.941c.3,0,.252.468-.049.468S368.9,39.941,369.2,39.941ZM249.9,10.561c.061,0,.05.094-.01.094S249.841,10.561,249.9,10.561ZM356.02,3.611c-.718-2.955.007-6.275,1.013-9.084.072-.2.374-.084.308.116-1,3.046-.931,5.81-1.019,8.96a.127.127,0,0,1-.135.132A.17.17,0,0,1,356.02,3.611ZM359.5,1.274c-1.263-.847-.5-2.794.556-3.421.366-.217.63.383.273.6-.954.577-.836,1.682-.55,2.59a.2.2,0,0,1-.172.267A.193.193,0,0,1,359.5,1.274Zm2.412-.3a10.312,10.312,0,0,1,.941-2.025c.137-.265.575-.108.439.165a10.624,10.624,0,0,1-1.113,2,.158.158,0,0,1-.122.062A.155.155,0,0,1,361.912.979Zm17.624-11.395c-.418-1.711-.083-3.807-.06-5.561,0-.291.441-.238.444.044.022,1.756.346,3.837-.068,5.548a.128.128,0,0,1-.131.107A.2.2,0,0,1,379.535-10.416Zm4.624-1.526c-.044-.157-.09-.311-.136-.467a.357.357,0,0,1-.352.3c-.438,0-.366-.677.069-.677a.282.282,0,0,1,.194.072,150.774,150.774,0,0,0-5.86-17.221.129.129,0,0,1,.236-.106,91.884,91.884,0,0,1,6.012,18.074.072.072,0,0,1-.076.09A.09.09,0,0,1,384.16-11.941ZM350.53-51.268c-.106-.085.014-.258.121-.173a31.57,31.57,0,0,0,33.6,3.648c.054-.026.093.059.038.085a30.842,30.842,0,0,1-14.094,3.41A31.4,31.4,0,0,1,350.53-51.268Zm37.228,6.5a17.651,17.651,0,0,1-1.052-4.4c-.267-1.439-.323-4.126-1.918-4.792a.281.281,0,0,1,.2-.527,3.239,3.239,0,0,1,2.021,2.564,24.314,24.314,0,0,1,1.221,7.076.229.229,0,0,1-.242.214A.247.247,0,0,1,387.758-44.767Zm8.217-5.926c-1.006-1.21-1.238-3.3-1.293-4.813-.012-.328.5-.413.51-.081a11.892,11.892,0,0,0,.326,2.435c.2.793.6,1.525.767,2.318a.172.172,0,0,1-.179.2A.167.167,0,0,1,395.975-50.693Zm-58.118-72.193c-1.193-1.341-1.617-3.756-1.886-5.476a.141.141,0,0,1,.279-.044,17.527,17.527,0,0,0,.807,3.118,22.584,22.584,0,0,1,.945,2.335.078.078,0,0,1-.083.093A.083.083,0,0,1,337.857-122.886Zm25.116-1.562c-.431-.241.022-.9.447-.633a2.376,2.376,0,0,0,1.73.2.212.212,0,0,1,.168.37,1.622,1.622,0,0,1-1.107.407A2.58,2.58,0,0,1,362.974-124.448Zm-24.113-3.187c.1-.2.431-.078.33.123a1.7,1.7,0,0,0,1.269,2.324c.079.021.061.152-.016.159q-.064.005-.127.005A1.846,1.846,0,0,1,338.861-127.635Zm22.582,1.616c.529-.111,1.284-.431,1.8-.187a.226.226,0,0,1,.105.337c-.409.464-1.216.473-1.791.593a.411.411,0,0,1-.084.009A.382.382,0,0,1,361.443-126.019Zm-1.888-.713a6.154,6.154,0,0,1-2.356-1.256.424.424,0,0,1,.342-.753,8.05,8.05,0,0,1-3.988-3.175,5.47,5.47,0,0,1-1.327-2.538l-.007-.041a6.832,6.832,0,0,1-.14-2.848c.212-2.17,1.13-4.334,2.865-5.12.023-.021.046-.042.069-.062a6.318,6.318,0,0,1,2.913-1.349c.03-.009.059-.015.088-.023a4.088,4.088,0,0,1,2.036-.376c.014-.006.026-.016.041-.022a2.089,2.089,0,0,1,2.82,1,4.739,4.739,0,0,1,1.343,1.382,5.372,5.372,0,0,1-.8,6.713,9.906,9.906,0,0,1-2.79,3.841,5.265,5.265,0,0,1-1.28.773,8.018,8.018,0,0,1,2.318.5.369.369,0,0,1,.17.552c-1.026,1.256-2.655,1.367-4.244.825a.538.538,0,0,1,.059.032,7.3,7.3,0,0,0,2.12.892c.591.148,1.364.092,1.844.5a.287.287,0,0,1,.017.447,1.362,1.362,0,0,1-.938.3A4.833,4.833,0,0,1,359.555-126.732Zm.615-6.835c-.01.039-.016.076-.028.115s-.026.037-.035.059a4.827,4.827,0,0,0,.483-.24C360.453-133.6,360.311-133.587,360.169-133.567Zm-1.875-.329c.076-.018.148-.04.22-.064a6.712,6.712,0,0,1-.867-1.408A3.154,3.154,0,0,0,358.294-133.9Zm-2.105-.679a2.3,2.3,0,0,0,.814.568,5.884,5.884,0,0,1-.378-3.2,2.694,2.694,0,0,1-.924-.461A3.052,3.052,0,0,0,356.189-134.574Zm4.277.158c.063-.047.116-.106.176-.156a1.1,1.1,0,0,1-.135-.04C360.5-134.545,360.481-134.482,360.466-134.417Zm-2.846-4.712a2.134,2.134,0,0,1,.75.587l.483-.795c-.01-.023-.022-.04-.032-.064a1.279,1.279,0,0,1,.327-1.6c0-.014,0-.029-.009-.044l-.235-.511a2.933,2.933,0,0,0-.625-.561c-.047.013-.095.025-.141.04a1.212,1.212,0,0,1-.847,1.552,2.128,2.128,0,0,0-1.427,1.055c.283-.273.724.173.5.482-.06.084-.113.178-.17.268l.7.143c.032-.122.067-.243.1-.365a.359.359,0,0,1,.366-.254A.548.548,0,0,1,357.62-139.129Zm14.407,8.818a10.747,10.747,0,0,1-.422-2.375.258.258,0,0,1,.51-.081,10.613,10.613,0,0,1,.268,2.4.19.19,0,0,1-.2.167A.166.166,0,0,1,372.028-130.311Zm-3.638-2.92c-.374-.282-.718-.6-1.071-.905s.133-.8.427-.464c.308.355.628.7.913,1.078a.209.209,0,0,1-.155.331A.187.187,0,0,1,368.39-133.231Z" transform="translate(93 429.034)"/></g></svg>