<svg xmlns="http://www.w3.org/2000/svg" width="17.5" height="20" viewBox="0 0 17.5 20"><defs></defs><g transform="translate(-29.583 0)"><path class="a" d="M177.525,120.846a2.5,2.5,0,1,0,2.5-2.5A2.5,2.5,0,0,0,177.525,120.846Zm3.75,0a1.25,1.25,0,1,1-1.25-1.25A1.252,1.252,0,0,1,181.275,120.846Z" transform="translate(-141.692 -113.346)"/><path class="a" d="M46.839,6.38,38.714.13a.626.626,0,0,0-.762,0L29.828,6.38A.625.625,0,0,0,30.209,7.5h.684l1.194,11.937a.625.625,0,0,0,.622.563h11.25a.625.625,0,0,0,.622-.563L45.774,7.5h.684a.625.625,0,0,0,.381-1.121ZM39.583,18.75h-2.5v-2.5a1.25,1.25,0,1,1,2.5,0Zm5-11.937L43.393,18.75H40.833v-2.5a2.5,2.5,0,1,0-5,0v2.5H33.274L32.08,6.813a.623.623,0,0,0-.222-.418l6.475-4.981,6.475,4.981A.623.623,0,0,0,44.586,6.813Z" transform="translate(0 0)"/></g></svg>