<svg xmlns="http://www.w3.org/2000/svg" width="13" height="17.003" viewBox="0 0 13 17.003"><defs></defs><g transform="translate(-4.938 -3)"><g transform="translate(4.938 3)"><path class="a" d="M6,20a.931.931,0,0,1-.919-.941L4.94,5.259a2.158,2.158,0,0,1,.553-1.533,2.057,2.057,0,0,1,1.451-.679L15.759,3a2.115,2.115,0,0,1,2.05,2.175l.129,13.8a.946.946,0,0,1-.45.819.9.9,0,0,1-.919,0l-5.24-2.975L6.466,19.861A1.084,1.084,0,0,1,6,20Zm5.295-5.225a1,1,0,0,1,.46.113l4.33,2.457-.11-12.192c0-.188-.12-.32-.193-.311L6.953,4.93c-.074,0-.175.122-.175.311l.11,12.145,3.934-2.476a.957.957,0,0,1,.469-.132Z" transform="translate(-4.938 -3)"/></g></g></svg>