<svg xmlns="http://www.w3.org/2000/svg" width="95.752" height="96" viewBox="0 0 95.752 96"><defs></defs><g transform="translate(-2.052 -2)"><g transform="translate(2.052 2)"><path class="a" d="M16.224,31.268a4.82,4.82,0,0,0-6.816,6.816l14.4,14.4a4.658,4.658,0,0,0,6.864-.24l33.6-38.4a4.8,4.8,0,0,0-7.2-6.336L27.216,42.068Z" transform="translate(20.537 13.324)"/><path class="a" d="M93,45.2A4.8,4.8,0,0,0,88.2,50,38.388,38.388,0,1,1,49.8,11.6a42.192,42.192,0,0,1,9.12,1.056A4.8,4.8,0,1,0,61.18,3.344,50.592,50.592,0,0,0,49.8,2a48,48,0,1,0,48,48A4.8,4.8,0,0,0,93,45.2Z" transform="translate(-2.052 -2)"/></g></g></svg>