<svg xmlns="http://www.w3.org/2000/svg" width="14.193" height="22" viewBox="0 0 14.193 22"><defs></defs><g transform="translate(-80.123 0)"><path class="a" d="M92.235,16.282a7.586,7.586,0,0,0,2.081-5.55c0-4.543-2.793-8.292-6.362-8.749a1.328,1.328,0,0,1,1.2-.765.609.609,0,1,0,0-1.218A2.539,2.539,0,0,0,87.22.9,2.54,2.54,0,0,0,85.284,0a.609.609,0,1,0,0,1.218,1.328,1.328,0,0,1,1.2.765c-3.569.457-6.362,4.206-6.362,8.749a7.587,7.587,0,0,0,2.081,5.55,6.582,6.582,0,0,0,2.617,1.572v2.17l-.937.937a.609.609,0,0,0,.861.861l.611-.611.611.611a.609.609,0,0,0,.861-.861l-.79-.79V18.137a8.168,8.168,0,0,0,2.509-.023v1.91l-.937.937a.609.609,0,0,0,.861.861l.611-.611.611.611a.609.609,0,1,0,.861-.861l-.79-.79V17.8A6.556,6.556,0,0,0,92.235,16.282Zm-.857-.866a5.038,5.038,0,0,1-.406.36,3.881,3.881,0,0,1,1.939-3.254A5.737,5.737,0,0,1,91.379,15.416Zm-9.851-2.893a3.881,3.881,0,0,1,1.939,3.254,5.051,5.051,0,0,1-.406-.36A5.738,5.738,0,0,1,81.527,12.523Zm3.122,3.965a5.089,5.089,0,0,0-3.3-5.388q-.007-.182-.007-.368A8.709,8.709,0,0,1,83.11,5.339a4.956,4.956,0,0,1,8.219,0A8.708,8.708,0,0,1,93.1,10.732q0,.186-.007.368a5.089,5.089,0,0,0-3.3,5.388,6.644,6.644,0,0,1-5.139,0Z" transform="translate(0 0)"/><path class="a" d="M292.653,180.808a.61.61,0,1,0-.43-.178A.611.611,0,0,0,292.653,180.808Z" transform="translate(-201.597 -170.841)"/><path class="a" d="M135.143,179.59a.609.609,0,1,0,.431.178A.615.615,0,0,0,135.143,179.59Z" transform="translate(-51.76 -170.841)"/><path class="a" d="M184.831,163.363l-1.591-1.408a.609.609,0,0,0-.807,0l-1.591,1.408a.609.609,0,0,0-.062.848l1.591,1.889a.609.609,0,0,0,.932,0l1.591-1.889A.609.609,0,0,0,184.831,163.363Zm-1.994,1.4-.742-.881.742-.657.742.657Z" transform="translate(-95.617 -153.92)"/></g></svg>