<svg xmlns="http://www.w3.org/2000/svg" width="63" height="95" viewBox="0 0 63 95"><defs></defs><g transform="translate(-85.333)"><g transform="translate(85.333)"><path class="a" d="M148.333,51.9c0-17.31-13.62-51.9-31.5-51.9s-31.5,34.593-31.5,51.9a31.169,31.169,0,0,0,15.75,27v6.757l-4.56,1.529a1.98,1.98,0,0,0,.623,3.856,1.947,1.947,0,0,0,.623-.1l3.314-1.111v3.192a1.969,1.969,0,1,0,3.938,0V89.83l3.315,1.109a1.961,1.961,0,0,0,2.492-1.251,1.983,1.983,0,0,0-1.246-2.5l-4.56-1.528V80.826a31.5,31.5,0,0,0,23.625,0v4.831l-4.56,1.529a1.98,1.98,0,0,0,.623,3.856,1.947,1.947,0,0,0,.623-.1l3.314-1.111v3.192a1.969,1.969,0,1,0,3.938,0V89.83l3.315,1.109a1.96,1.96,0,0,0,2.492-1.251,1.983,1.983,0,0,0-1.246-2.5l-4.56-1.528V78.9A31.169,31.169,0,0,0,148.333,51.9Zm-31.5,27.264A27.447,27.447,0,0,1,89.271,51.9c0-13.959,8.568-35.866,19.063-44.367l5.677,1.629-2.876,5.783a2.005,2.005,0,0,0-.081,1.589,1.981,1.981,0,0,0,1.111,1.135l6.591,2.65-5.072,3.825a1.982,1.982,0,0,0-.408,2.752l3.764,5.162a1.963,1.963,0,0,0,2.753.427,1.986,1.986,0,0,0,.423-2.766L117.6,26.137l6.318-4.762a1.982,1.982,0,0,0-.45-3.421L115.614,14.8l2.98-5.994a1.982,1.982,0,0,0-1.219-2.789l-4.348-1.248a10.862,10.862,0,0,1,3.806-.806C130.776,3.958,144.4,34.3,144.4,51.9A27.447,27.447,0,0,1,116.833,79.167Z" transform="translate(-85.333)"/></g></g></svg>