<svg xmlns="http://www.w3.org/2000/svg" width="10" height="22" viewBox="0 0 10 22"><defs><style>.a{fill:#d6dbe0;}</style></defs><path class="a" d="M154.16,3.245,149.87.15a.915.915,0,0,0-1,0l-4.29,3.095a.454.454,0,0,0-.208.362V15.771a.454.454,0,0,0,.208.362l4.082,2.945v2.41c0,.283.318.512.71.512s.71-.229.71-.512v-2.41l4.082-2.945a.454.454,0,0,0,.208-.362V3.607A.454.454,0,0,0,154.16,3.245Zm-5.5,14.385-2.87-2.071v-2.9l2.87,2.071Zm0-4.345-2.87-2.071V8.053l2.87,2.071Zm4.29,2.275-2.87,2.07v-2.9l2.87-2.071v2.9Zm0-4.345-2.87,2.071V10.124l2.87-2.071v3.161Zm0-4.609-2.87,2.071V3.618c0-.283-.318-.512-.71-.512s-.71.229-.71.512V8.675L145.788,6.6V3.819l3.58-2.583,3.58,2.583V6.6Z" transform="translate(-144.368)"/></svg>