<svg xmlns="http://www.w3.org/2000/svg" width="18" height="17.003" viewBox="0 0 18 17.003"><defs></defs><g transform="translate(-1.998 -2.997)"><g transform="translate(1.998 2.997)"><path class="a" d="M17.156,14.333a2.846,2.846,0,0,0-1.989.812L7.683,11.821v-.633l7.483-3.334a2.83,2.83,0,1,0-.853-2.021v.321L6.831,9.479a2.838,2.838,0,1,0,0,4.042l7.483,3.334v.312a2.842,2.842,0,1,0,2.842-2.833Zm0-9.445a.944.944,0,1,1-.947.944A.946.946,0,0,1,17.156,4.889ZM4.842,12.444a.944.944,0,1,1,.947-.944A.946.946,0,0,1,4.842,12.444Zm12.314,5.667a.944.944,0,1,1,.947-.944A.946.946,0,0,1,17.156,18.111Z" transform="translate(-1.998 -2.997)"/></g></g></svg>